<?xml version="1.0" encoding="iso-8859-1"?>
<!-- Generator: Adobe Illustrator 19.0.0, SVG Export Plug-In . SVG Version: 6.00 Build 0)  -->
<svg version="1.1" id="Capa_1" xmlns="http://www.w3.org/2000/svg" xmlns:xlink="http://www.w3.org/1999/xlink" x="0px" y="0px"
	 viewBox="0 0 512 512" style="enable-background:new 0 0 512 512;" xml:space="preserve">
<path style="fill:#FFC843;" d="M504.426,379.093c0,4.251-1.737,8.109-4.544,10.906c-2.797,2.807-6.665,4.544-10.906,4.544H23.025
	c-8.564,0-15.46-7.007-15.451-15.571c0.004-3.675,0.186-7.301,0.545-10.877c0.555-5.655,1.535-11.179,2.919-16.542
	c3.242-12.593,8.655-24.317,15.814-34.749c2.383-3.474,4.979-6.776,7.736-9.947h-0.162l52.483-67.014
	c22.54-30.064,53.765-51.755,88.807-62.652c16.774-5.211,34.426-7.958,52.412-7.958h45.494c6.594,0,13.128,0.424,19.571,1.242
	c48.13,6.12,91.079,34.608,115.296,77.527c4.371,7.746,7.367,13.056,9.419,16.693c2.742,4.86,7.208,8.459,12.48,10.288
	c22.427,7.783,41.559,22.603,54.75,41.82c7.17,10.432,12.583,22.156,15.825,34.749c1.384,5.372,2.363,10.896,2.919,16.542
	C504.244,371.711,504.426,375.377,504.426,379.093z"/>
<path style="fill:#FFA816;" d="M503.881,368.096H45.326c-7.599,0-13.146-7.11-11.393-14.505c0.162-0.682,0.329-1.36,0.504-2.037
	c3.242-12.593,8.655-24.317,15.814-34.749c2.383-3.474,4.979-6.776,7.736-9.947h-0.162l52.483-67.014
	c22.54-30.064,53.765-51.755,88.807-62.652c16.774-5.211,34.426-7.958,52.412-7.958h-23.399c-17.986,0-35.638,2.747-52.412,7.958
	c-35.042,10.896-66.267,32.588-88.807,62.652l-52.483,67.014h0.162c-2.757,3.171-5.352,6.473-7.736,9.947
	c-7.16,10.432-12.573,22.156-15.814,34.749c-1.384,5.362-2.363,10.886-2.919,16.542c-0.36,3.577-0.541,7.202-0.545,10.877
	c-0.009,8.564,6.887,15.571,15.451,15.571h23.399h442.552c4.241,0,8.109-1.737,10.906-4.544c2.807-2.797,4.544-6.655,4.544-10.906
	C504.426,375.377,504.244,371.711,503.881,368.096z"/>
<path style="fill:#00C395;" d="M381.627,263.07H108.772c-5.322,0-8.311-6.14-5.029-10.331l0.131-0.172
	c18.056-24.065,42.212-42.091,70.266-52.432c0.525-0.202,1.05-0.394,1.575-0.586c2.08-0.747,4.181-1.454,6.302-2.111
	c0.444-0.141,0.889-0.273,1.333-0.404c14.532-4.383,29.599-6.594,44.777-6.594h45.494c5.605,0,11.29,0.364,16.895,1.07
	c0.899,0.111,1.787,0.232,2.676,0.374c50.271,7.443,78.739,39.223,91.413,57.724c0.151,0.222,0.303,0.444,0.454,0.667
	c0.707,1.04,1.353,2.03,1.949,2.969C389.726,257.496,386.676,263.07,381.627,263.07z"/>
<g>
	<path style="fill:#76FFD9;" d="M385.06,250.275H135.362c-5.322,0-8.311-6.14-5.029-10.331l0.131-0.172
		c12.058-16.067,26.832-29.448,43.677-39.637c0.525-0.202,1.05-0.394,1.575-0.586c2.08-0.747,4.181-1.454,6.302-2.111
		c0.444-0.141,0.889-0.273,1.333-0.404c14.532-4.383,29.599-6.594,44.777-6.594h45.494c5.605,0,11.29,0.364,16.895,1.07
		c0.899,0.111,1.787,0.232,2.676,0.374c50.271,7.443,78.739,39.223,91.413,57.724C384.757,249.831,384.909,250.053,385.06,250.275z"
		/>
	<path style="fill:#76FFD9;" d="M293.193,191.885v71.185H175.716v-63.52c2.08-0.747,4.181-1.454,6.302-2.111
		c14.946-4.645,30.468-6.998,46.11-6.998h45.494c5.605,0,11.29,0.364,16.895,1.07C291.416,191.622,292.305,191.743,293.193,191.885z
		"/>
</g>
<path style="fill:#5DE0BF;" d="M298.869,332.195c0,18.723-11.997,34.648-28.731,40.485c-4.433,1.555-9.19,2.393-14.138,2.393
	c-23.681,0-42.869-19.198-42.869-42.879c0-23.671,19.187-42.869,42.869-42.869c4.948,0,9.705,0.838,14.138,2.393
	C286.871,297.557,298.869,313.472,298.869,332.195z"/>
<path style="fill:#76FFD9;" d="M298.869,332.195c0,18.723-11.997,34.648-28.731,40.485c-16.733-5.837-28.731-21.763-28.731-40.485
	c0-18.723,11.997-34.638,28.731-40.475C286.871,297.557,298.869,313.472,298.869,332.195z"/>
<circle style="fill:#969BA1;" cx="122.294" cy="395.007" r="46.686"/>
<path style="fill:#434C54;" d="M146.501,395.009c0,9.493-5.463,17.713-13.431,21.682c-3.242,1.616-6.897,2.525-10.775,2.525
	c-13.371,0-24.206-10.836-24.206-24.206c0-13.371,10.836-24.217,24.206-24.217c3.878,0,7.534,0.909,10.775,2.535
	C141.037,377.285,146.501,385.516,146.501,395.009z"/>
<circle style="fill:#969BA1;" cx="389.706" cy="395.007" r="46.686"/>
<path style="fill:#434C54;" d="M413.912,395.009c0,9.493-5.463,17.713-13.431,21.682c-3.242,1.616-6.897,2.525-10.775,2.525
	c-13.371,0-24.206-10.836-24.206-24.206c0-13.371,10.836-24.217,24.206-24.217c3.878,0,7.534,0.909,10.775,2.535
	C408.449,377.285,413.912,385.516,413.912,395.009z"/>
<g>
	<path style="fill:#ADB5BD;" d="M146.501,395.009c0,9.493-5.463,17.713-13.431,21.682c-7.968-3.959-13.441-12.179-13.441-21.682
		s5.473-17.733,13.441-21.682C141.037,377.285,146.501,385.516,146.501,395.009z"/>
	<path style="fill:#ADB5BD;" d="M413.912,395.009c0,9.493-5.463,17.713-13.431,21.682c-7.968-3.959-13.441-12.179-13.441-21.682
		s5.473-17.733,13.441-21.682C408.449,377.285,413.912,385.516,413.912,395.009z"/>
</g>
<path style="fill:#FF8025;" d="M61.167,331.953v4.544c0,8.331-6.817,15.148-15.148,15.148H12.623c-0.535,0-1.06-0.03-1.585-0.091
	c3.242-12.593,8.655-24.317,15.814-34.749h19.167c1.394,0,2.747,0.192,4.029,0.545C56.441,319.127,61.167,325.015,61.167,331.953z"
	/>
<path style="fill:#FF904D;" d="M61.167,331.953v4.544c0,8.331-6.817,15.148-15.148,15.148h-9.836c-0.535,0-1.06-0.03-1.585-0.091
	c3.181-12.371,8.473-23.914,15.451-34.204C56.441,319.127,61.167,325.015,61.167,331.953z"/>
<path style="fill:#EE8700;" d="M500.962,351.554c-0.525,0.061-1.05,0.091-1.585,0.091h-33.396c-8.331,0-15.148-6.817-15.148-15.148
	v-4.544c0-8.331,6.817-15.148,15.148-15.148h19.157c0.04,0.061,0.081,0.111,0.111,0.172
	C492.368,327.368,497.741,339.032,500.962,351.554z"/>
<path style="fill:#FF904D;" d="M500.962,351.554c-0.525,0.061-1.05,0.091-1.585,0.091h-11.856c-8.331,0-15.148-6.817-15.148-15.148
	v-4.544c0-7.554,5.605-13.865,12.876-14.976C492.368,327.368,497.741,339.032,500.962,351.554z"/>
<g>
	<rect x="175.716" y="250.274" style="fill:#5DE0BF;" width="117.477" height="12.795"/>
	<path style="fill:#5DE0BF;" d="M352.51,150.869c20.463,0,37.109,16.648,37.109,37.11c0,4.183,3.39,7.574,7.574,7.574
		s7.574-3.391,7.574-7.574c0-28.815-23.443-52.258-52.257-52.258c-4.184,0-7.574,3.391-7.574,7.574S348.328,150.869,352.51,150.869z
		"/>
	<path style="fill:#5DE0BF;" d="M352.51,77.88c60.708,0,110.098,49.39,110.098,110.099c0,4.183,3.39,7.574,7.574,7.574
		c4.184,0,7.574-3.391,7.574-7.574c0-69.061-56.186-125.247-125.246-125.247c-4.184,0-7.574,3.391-7.574,7.574
		S348.328,77.88,352.51,77.88z"/>
	<path style="fill:#5DE0BF;" d="M352.51,113.001c41.342,0,74.977,33.635,74.977,74.978c0,4.183,3.39,7.574,7.574,7.574
		s7.574-3.391,7.574-7.574c0-49.695-40.43-90.126-90.125-90.126c-4.184,0-7.574,3.391-7.574,7.574S348.328,113.001,352.51,113.001z"
		/>
</g>
<g>
	<path style="fill:#FFFFFF;" d="M238.975,205.474c-2.528-3.332-7.278-3.985-10.612-1.455l-30.655,23.261
		c-3.333,2.529-3.984,7.279-1.455,10.612c2.517,3.315,7.264,3.996,10.612,1.455l30.655-23.261
		C240.852,213.557,241.503,208.806,238.975,205.474z"/>
	<path style="fill:#FFFFFF;" d="M278.023,202.275c-2.528-3.332-7.278-3.985-10.612-1.455l-30.655,23.261
		c-5.754,4.367-2.666,13.608,4.584,13.608c4.518,0,3.887-1.691,35.228-24.802C279.899,210.359,280.552,205.608,278.023,202.275z"/>
</g>
<path style="fill:#FF8025;" d="M330.73,295.891c4.181,0,7.574-3.393,7.574-7.574s-3.393-7.574-7.574-7.574h-31.306
	c-4.181,0-7.574,3.393-7.574,7.574s3.393,7.574,7.574,7.574H330.73z"/>
<path style="fill:#FFFFFF;" d="M331.504,223.234l-17.494,13.137c-3.333,2.529-3.984,7.279-1.455,10.612
	c1.491,1.963,3.751,2.996,6.039,2.996c1.595,0,3.203-0.502,4.572-1.541l17.494-13.137c3.333-2.529,3.984-7.279,1.455-10.612
	C339.588,221.358,334.838,220.703,331.504,223.234z"/>
<path style="fill:#00A97D;" d="M280.237,332.687c0-4.183-3.391-7.574-7.574-7.574h-11.61l15.566-15.566
	c2.958-2.958,2.958-7.754,0-10.712c-2.958-2.958-7.754-2.958-10.712,0l-28.224,28.224c-1.929,1.929-2.591,4.638-2.005,7.111
	c0.023,0.116,0.056,0.229,0.084,0.344c0.006,0.021,0.01,0.043,0.016,0.065c0.841,3.265,3.798,5.681,7.326,5.681h11.347
	l-16.182,16.182c-2.958,2.958-2.958,7.754,0,10.712c2.958,2.958,7.754,2.958,10.711,0l29.037-29.037
	c1.489-1.489,2.227-3.443,2.217-5.395C280.235,332.711,280.237,332.699,280.237,332.687z"/>
<g>
	<path style="fill:#434C54;" d="M427.394,266.1l-0.01-0.02c-9.343-14.336-23.972-54.868-73.225-83.041
		c-3.635-2.08-8.261-0.808-10.341,2.818c-2.07,3.636-0.808,8.261,2.828,10.331c43.245,24.711,57.702,61.298,61.117,65.934
		c-2.141-0.252-4.302-0.434-6.483-0.576l-18.097-0.202h-9.806c-4.181,0-7.574,3.393-7.574,7.574s3.393,7.574,7.574,7.574
		c9.462,1.546,57.301-8.759,95.947,32.74c0,0,18.98,16.371,25.59,49.988c1.272,6.433,1.939,13.078,1.939,19.874
		c0,4.342-3.535,7.877-7.877,7.877H443.37c-3.898-26.125-26.479-46.231-53.664-46.231s-49.766,20.106-53.664,46.231H175.958
		c-3.898-26.125-26.479-46.231-53.664-46.231S72.528,360.845,68.63,386.97h-8.846c-4.181,0-7.574,3.393-7.574,7.574
		s3.393,7.574,7.574,7.574h8.715c3.494,26.58,26.287,47.15,53.795,47.15s50.301-20.571,53.795-47.15H335.91
		c3.494,26.58,26.287,47.15,53.795,47.15s50.301-20.571,53.795-47.15h45.474c12.694,0,23.025-10.331,23.025-23.025
		C512,326.166,476.756,280.591,427.394,266.1z M160.75,402.118c-3.343,18.188-19.309,32.003-38.456,32.003
		c-24.822,0-43.374-22.924-38.284-47.15c3.716-17.723,19.47-31.084,38.284-31.084C146.672,355.886,165.264,378.164,160.75,402.118z
		 M428.161,402.118c-3.343,18.188-19.309,32.003-38.456,32.003s-35.113-13.815-38.456-32.003
		c-4.464-23.681,13.825-46.231,38.456-46.231C414.296,355.886,432.635,378.386,428.161,402.118z"/>
	<path style="fill:#434C54;" d="M183.28,261.343h-15.128c-25.105,0.98-43.596-1.101-62.006,0.646
		c-12.26,0.814-22.631,4.413-22.631,4.413c-3.514,1.081-7.12,2.373-10.846,3.918c0.865-1.11,25.619-32.84,26.569-33.79
		c19.357-20.651,42.663-38.595,68.903-48.625c32.629-12.427,56.727-12.291,117.477-10.604c11.309,0.898,23.034,3.218,34.77,7.13
		c3.969,1.333,8.261-0.808,9.594-4.777c1.323-3.969-0.808-8.261-4.777-9.584c-16.653-5.585-34.002-8.412-51.584-8.412
		c-0.104,0-46.809-0.005-47.474,0.01c-59.094,0.616-112.289,29.634-145.248,73.568c-0.08,0.101-15.229,19.359-15.229,19.46
		c-48.48,60.96-54.458,69.314-60.652,90.373c0,0-0.01,0.01-0.01,0.02C1.818,355.412,0,367.328,0,379.093
		c0,12.694,10.331,23.025,23.025,23.025h6.463c4.181,0,7.574-3.393,7.574-7.574s-3.393-7.574-7.574-7.574h-6.463
		c-4.342,0-7.877-3.535-7.877-7.877c0-6.796,0.667-13.441,1.939-19.874c0,0,3.636-27.432,25.59-49.988
		c18.743-20.127,45.464-32.74,75.073-32.74h225.33c4.191,0,7.574-3.393,7.574-7.574s-3.383-7.574-7.574-7.574h-40.963h-1.36h-15.128
		L183.28,261.343L183.28,261.343z"/>
</g>
<path style="fill:#00A97D;" d="M300.767,185.492c-18.032-3.483-23.183-2.467-72.639-2.626c-50.525,0-98.957,23.37-130.272,65.106
	l-14.34,18.43c0,0,10.371-3.6,22.631-4.413c3.431-3.614,21.385-33.288,61.995-51.25c0,22.358,0,50.18,0.01,50.604h15.128
	c0.01-0.434,0.01-32.295,0.01-56.36c32.302-10.447,56.263-5.812,90.332-6.968c3.959,0,7.978,0.192,11.997,0.576
	c0,25.842,0,62.309,0.01,62.753h15.128c0.01-0.434,0.01-35.163,0.01-60.38c32.05,6.977,60.286,25.716,82.415,60.38l18.097,0.202
	C396.594,255.486,370.083,198.907,300.767,185.492z"/>
<g>
</g>
<g>
</g>
<g>
</g>
<g>
</g>
<g>
</g>
<g>
</g>
<g>
</g>
<g>
</g>
<g>
</g>
<g>
</g>
<g>
</g>
<g>
</g>
<g>
</g>
<g>
</g>
<g>
</g>
</svg>
